<?xml version="1.0" encoding="UTF-8"?>
<!DOCTYPE svg PUBLIC "-//W3C//DTD SVG 1.1//EN" "http://www.w3.org/Graphics/SVG/1.1/DTD/svg11.dtd">
<!-- Creator: CorelDRAW 2021 (64-Bit) -->
<svg xmlns="http://www.w3.org/2000/svg" xml:space="preserve" width="76.0696mm" height="18.6962mm" version="1.1" style="shape-rendering:geometricPrecision; text-rendering:geometricPrecision; image-rendering:optimizeQuality; fill-rule:evenodd; clip-rule:evenodd"
viewBox="0 0 609.01 149.68"
 xmlns:xlink="http://www.w3.org/1999/xlink"
 xmlns:xodm="http://www.corel.com/coreldraw/odm/2003">
 <defs>
  <style type="text/css">
   <![CDATA[
    .fil0 {fill:#646B6F;fill-rule:nonzero}
    .fil2 {fill:#9CCEF3;fill-rule:nonzero}
    .fil1 {fill:#009EE0;fill-rule:nonzero}
   ]]>
  </style>
 </defs>
 <g id="Слой_x0020_1">
  <metadata id="CorelCorpID_0Corel-Layer"/>
  <path class="fil0" d="M10.93 76.59c0,8.09 4.04,14.19 10.41,14.19 6.02,0 10.24,-5.85 10.24,-14.37 0,-6.54 -2.93,-14.11 -10.16,-14.11 -7.49,0 -10.49,7.31 -10.49,14.29zm31.58 -0.43c0,15.4 -10.84,22.28 -21.51,22.28 -11.79,0 -20.99,-8.09 -20.99,-21.59 0,-13.77 9.03,-22.2 21.68,-22.2 12.48,0 20.82,8.78 20.82,21.51z"/>
  <path class="fil1" d="M43.72 116.4l0 -4.43 3.99 -3.61c6.88,-6.16 10.2,-9.67 10.25,-13.33 0,-2.55 -1.49,-4.57 -5.1,-4.57 -2.69,0 -5.05,1.35 -6.69,2.55l-2.07 -5.2c2.31,-1.78 6.01,-3.23 10.2,-3.23 7.12,0 10.97,4.14 10.97,9.77 0,5.29 -3.76,9.48 -8.32,13.52l-2.89 2.41 0 0.1 11.84 0 0 6.02 -22.18 0z"/>
  <path class="fil0" d="M112.26 96.21c-2.23,1.03 -6.63,2.15 -11.87,2.15 -13.08,0 -21.6,-8.43 -21.6,-21.43 0,-12.56 8.61,-22.29 23.32,-22.29 3.87,0 7.83,0.86 10.24,1.9l-1.89 8c-1.72,-0.86 -4.21,-1.63 -8,-1.63 -8.09,0 -12.91,5.94 -12.82,13.59 0,8.61 5.59,13.51 12.82,13.51 3.62,0 6.28,-0.78 8.35,-1.64l1.46 7.83z"/>
  <path class="fil0" d="M127.57 76.59c0,8.09 4.04,14.19 10.42,14.19 6.02,0 10.24,-5.85 10.24,-14.37 0,-6.54 -2.93,-14.11 -10.15,-14.11 -7.49,0 -10.5,7.31 -10.5,14.29zm31.58 -0.43c0,15.4 -10.84,22.28 -21.52,22.28 -11.79,0 -20.99,-8.09 -20.99,-21.59 0,-13.77 9.03,-22.2 21.69,-22.2 12.48,0 20.82,8.78 20.82,21.51z"/>
  <path class="fil0" d="M167.84 68.07c0,-4.82 -0.17,-8.86 -0.34,-12.48l9.21 0 0.52 6.28 0.25 0c1.89,-3.27 6.45,-7.23 13.42,-7.23 7.32,0 14.89,4.73 14.89,17.99l0 24.87 -10.58 0 0 -23.66c0,-6.02 -2.24,-10.58 -8,-10.58 -4.21,0 -7.14,3.01 -8.26,6.19 -0.34,0.86 -0.51,2.15 -0.51,3.36l0 24.69 -10.59 0 0 -29.43z"/>
  <path class="fil0" d="M216.63 87.69c2.32,1.46 6.89,3.1 10.67,3.1 4.65,0 6.71,-1.98 6.71,-4.73 0,-2.84 -1.71,-4.21 -6.88,-6.11 -8.18,-2.75 -11.53,-7.23 -11.53,-12.22 0,-7.4 6.11,-13.08 15.83,-13.08 4.65,0 8.69,1.12 11.18,2.5l-2.15 7.4c-1.72,-1.04 -5.16,-2.41 -8.86,-2.41 -3.79,0 -5.85,1.9 -5.85,4.48 0,2.66 1.98,3.87 7.31,5.85 7.66,2.67 11.1,6.54 11.19,12.74 0,7.66 -5.94,13.16 -17.04,13.16 -5.07,0 -9.63,-1.2 -12.73,-2.93l2.15 -7.74z"/>
  <path class="fil0" d="M290.46 84.94c0,4.99 0.17,9.12 0.35,12.56l-9.21 0 -0.52 -6.28 -0.26 0c-1.81,2.92 -5.94,7.22 -13.51,7.22 -7.58,0 -14.54,-4.56 -14.54,-18.24l0 -24.61 10.59 0 0 22.8c0,6.96 2.23,11.44 7.83,11.44 4.3,0 7.05,-2.93 8.09,-5.68 0.42,-0.86 0.6,-2.07 0.6,-3.27l0 -25.29 10.58 0 0 29.34z"/>
  <polygon class="fil0" points="301.91,36.41 312.49,36.41 312.49,97.5 301.91,97.5 "/>
  <path class="fil0" d="M336.15 44.84l0 10.76 10.07 0 0 7.91 -10.07 0 0 18.5c0,5.16 1.37,7.74 5.42,7.74 1.89,0 2.92,-0.09 4.13,-0.43l0.17 8.01c-1.54,0.6 -4.38,1.12 -7.66,1.12 -3.95,0 -7.14,-1.29 -9.12,-3.44 -2.33,-2.41 -3.36,-6.28 -3.36,-11.79l0 -19.71 -5.94 0 0 -7.91 5.94 0 0 -7.83 10.41 -2.93z"/>
  <path class="fil0" d="M354.22 55.6l10.59 0 0 41.9 -10.59 0 0 -41.9zm11.27 -11.7c0,3.1 -2.32,5.68 -6.02,5.68 -3.53,0 -5.85,-2.58 -5.85,-5.68 0,-3.27 2.41,-5.76 5.94,-5.76 3.61,0 5.85,2.49 5.94,5.76z"/>
  <path class="fil0" d="M376.25 68.07c0,-4.82 -0.17,-8.86 -0.35,-12.48l9.21 0 0.52 6.28 0.26 0c1.89,-3.27 6.45,-7.23 13.42,-7.23 7.32,0 14.89,4.73 14.89,17.99l0 24.87 -10.59 0 0 -23.66c0,-6.02 -2.24,-10.58 -8,-10.58 -4.22,0 -7.14,3.01 -8.26,6.19 -0.34,0.86 -0.51,2.15 -0.51,3.36l0 24.69 -10.59 0 0 -29.43z"/>
  <path class="fil0" d="M452.83 72.38c0,-1.03 -0.08,-1.98 -0.34,-2.84 -1.12,-3.87 -4.13,-6.8 -8.61,-6.8 -5.94,0 -10.33,5.16 -10.33,13.68 0,7.14 3.61,12.9 10.24,12.9 3.95,0 7.4,-2.58 8.61,-6.45 0.34,-1.03 0.42,-2.5 0.42,-3.7l0 -6.8zm10.59 19.01c0,8.78 -1.8,15.06 -6.19,19.02 -4.3,3.88 -10.41,5.08 -16.18,5.08 -5.34,0 -11.01,-1.2 -14.63,-3.36l2.32 -8c2.66,1.55 7.14,3.18 12.22,3.18 6.88,0 12.05,-3.61 12.05,-12.64l0 -3.62 -0.18 0c-2.41,3.7 -6.63,6.2 -12.22,6.2 -10.41,0 -17.81,-8.6 -17.81,-20.48 0,-13.77 8.95,-22.11 19.02,-22.11 6.45,0 10.15,3.1 12.13,6.54l0.17 0 0.43 -5.59 9.21 0c-0.18,2.84 -0.35,6.28 -0.35,12.04l0 23.75z"/>
  <path class="fil2" d="M526.09 103.35l-0.03 0 -0.5 -1.93 -0.4 -1.54 -12.06 0c2.24,5.16 4.72,10.25 7.41,15.22l9.01 0c-1.23,-3.85 -2.37,-7.78 -3.43,-11.76z"/>
  <path class="fil2" d="M520.66 78.68l-0.03 0 -15.25 0c1.56,5.33 3.43,10.72 5.57,16.06l12.96 0c-1.26,-5.37 -2.34,-10.74 -3.25,-16.06z"/>
  <path class="fil2" d="M546.67 134.89l-0.3 -2.22 -0.4 -2.93 0.01 0c-0.13,-1.01 -0.26,-2.02 -0.39,-3.05l-6.41 0c1.12,2.97 5.9,14.44 6.41,15.5l2.19 0c-0.37,-2.35 -0.73,-4.79 -1.09,-7.3l-0.01 0z"/>
  <path class="fil2" d="M554.25 149.68c0.14,-0.77 1.77,-11.49 2.22,-14.79l-4.44 0c0.45,3.3 2.08,14.03 2.22,14.79z"/>
  <path class="fil2" d="M533.46 126.69l-0.61 -1.7 -1.25 -3.45 0.05 0c-0.15,-0.43 -0.3,-0.85 -0.45,-1.28l-7.8 0c2.73,4.7 5.63,9.23 8.65,13.52l4.19 0c-0.94,-2.31 -1.86,-4.68 -2.76,-7.1l-0.01 0z"/>
  <path class="fil2" d="M518.93 18.41l-16.42 0c-1.23,4.21 -2.09,8.75 -2.57,13.53l17.53 0c0.02,-0.43 1.09,-11.23 1.46,-13.53z"/>
  <path class="fil2" d="M567.81 17.31l0.13 2.44 0.14 2.71 -0.01 0c0.04,1.01 0.08,2.02 0.12,3.05l16.81 0c-0.34,-3.2 -2.18,-14.44 -2.47,-15.5l-15.26 0c0.2,2.33 0.38,4.77 0.53,7.3l0.01 0z"/>
  <path class="fil2" d="M608.57 31.94c-0.47,-4.78 -1.34,-9.31 -2.57,-13.53l-16.42 0c0.38,2.29 1.44,13.1 1.46,13.53l17.53 0z"/>
  <path class="fil2" d="M517.5 51.56l-0.14 -2.72 0.02 0c-0.17,-4.03 -0.2,-7.96 -0.12,-11.76l-17.68 0c-0.2,4.85 -0.03,9.96 0.5,15.22l17.47 0 -0.04 -0.75z"/>
  <path class="fil2" d="M560.92 0l-13.34 0c-0.23,1.55 -1.16,13.92 -1.36,17.31l16.06 0c-0.2,-3.4 -1.13,-15.77 -1.36,-17.31z"/>
  <path class="fil2" d="M540.45 22.46l-0.01 0 0.14 -2.71 0.13 -2.44 0.02 0c0.15,-2.53 0.33,-4.97 0.53,-7.3l-15.26 0c-0.29,1.06 -2.13,12.3 -2.47,15.5l16.81 0c0.04,-1.03 0.08,-2.05 0.12,-3.05z"/>
  <path class="fil2" d="M519.83 73.53c-0.83,-5.46 -1.48,-10.84 -1.92,-16.07l-17.2 0c0.75,5.23 1.84,10.62 3.25,16.07l15.84 0 0.04 0z"/>
  <path class="fil2" d="M582.95 101.43l-0.5 1.93 -0.02 0c-1.07,3.97 -2.21,7.9 -3.43,11.76l9.01 0c2.69,-4.97 5.17,-10.06 7.41,-15.22l-12.06 0 -0.4 1.54z"/>
  <path class="fil2" d="M588.68 73.53l0.03 0 15.84 0c1.41,-5.45 2.49,-10.84 3.24,-16.07l-17.21 0c-0.44,5.23 -1.09,10.61 -1.92,16.07z"/>
  <path class="fil2" d="M562.54 129.73l0.01 0 -0.4 2.93 -0.3 2.23 -0.01 0c-0.36,2.52 -0.72,4.96 -1.09,7.3l2.19 0c0.51,-1.06 5.3,-12.52 6.41,-15.5l-6.42 0c-0.13,1.02 -0.26,2.04 -0.39,3.05z"/>
  <path class="fil2" d="M587.85 78.68c-0.92,5.33 -2,10.7 -3.25,16.06l12.96 0c2.14,-5.35 4,-10.73 5.58,-16.06l-15.25 0 -0.03 0z"/>
  <path class="fil2" d="M576.86 121.54l0.05 0 -1.25 3.45 -0.61 1.7 -0.01 0c-0.9,2.43 -1.82,4.79 -2.76,7.1l4.19 0c3.03,-4.3 5.93,-8.82 8.66,-13.52l-7.81 0c-0.15,0.43 -0.3,0.85 -0.45,1.28z"/>
  <path class="fil2" d="M608.93 37.09l-17.67 0c0.09,3.8 0.05,7.73 -0.12,11.76l0.02 0 -0.15 2.72 -0.04 0.75 17.46 0c0.54,-5.27 0.7,-10.37 0.5,-15.22z"/>
  <path class="fil2" d="M546.73 78.68c0.42,7.31 0.93,14.65 1.55,21.88 0.06,0.74 0.13,1.47 0.19,2.2l11.57 0c0.06,-0.73 0.13,-1.46 0.19,-2.2 0.62,-7.24 1.13,-14.58 1.55,-21.88l-15.05 0z"/>
  <path class="fil2" d="M545.68 51.38c0.13,7.12 0.39,14.56 0.77,22.15l15.6 0c0.38,-7.6 0.64,-15.04 0.77,-22.15l0 -0.01c0.01,-0.65 0.02,-1.29 0.03,-1.94l-17.21 0c0.01,0.65 0.02,1.29 0.03,1.94l0 0.01z"/>
  <path class="fil1" d="M543.5 107.91l-0.22 -2.33 -0.21 -2.22 -11.38 0c1.24,4.58 2.58,9.11 4.03,13.53 0.51,1.56 1.04,3.11 1.58,4.65l7.66 0c-0.52,-4.41 -1,-8.96 -1.46,-13.63l-0.01 0z"/>
  <path class="fil1" d="M540.09 46.89l-0.03 -2.6 0.01 0c-0.03,-4.74 0.01,-9.28 0.1,-13.63l-17.1 0c-0.1,1.3 -0.17,2.62 -0.22,3.95l0 0.01c-0.18,4.54 -0.16,9.31 0.05,14.23l17.22 0 -0.02 -1.95z"/>
  <path class="fil1" d="M541.24 78.68l-0.02 0 -15.01 0c1.04,5.98 2.29,12.03 3.76,18.03 0.12,0.5 0.26,1 0.38,1.5l12.27 0c-0.55,-6.51 -1.01,-13.05 -1.38,-19.53z"/>
  <path class="fil1" d="M540.95 73.53c-0.34,-6.67 -0.6,-13.22 -0.74,-19.53l-17.03 0c0.02,0.23 0.02,0.46 0.04,0.7l0 0.01c0.43,6.07 1.17,12.4 2.14,18.82l15.57 0 0.01 0z"/>
  <path class="fil1" d="M550.62 123.8c0.23,2.02 0.47,3.99 0.73,5.93l5.81 0c0.25,-1.93 0.49,-3.91 0.73,-5.93 0.61,-5.13 1.16,-10.46 1.68,-15.9l-10.64 0c0.53,5.48 1.08,10.81 1.69,15.9z"/>
  <path class="fil1" d="M567.27 78.68c-0.38,6.49 -0.84,13.02 -1.38,19.53l12.27 0c0.12,-0.5 0.26,-1 0.38,-1.5 1.47,-6.01 2.72,-12.06 3.76,-18.03l-15.01 0 -0.01 0z"/>
  <path class="fil1" d="M585.65 34.62l0 -0.01c-0.06,-1.33 -0.13,-2.65 -0.21,-3.95l-17.11 0c0.09,4.34 0.13,8.89 0.1,13.63l0.01 0 -0.03 2.6 -0.02 1.95 17.21 0c0.21,-4.93 0.23,-9.7 0.04,-14.23z"/>
  <path class="fil1" d="M567.56 73.53l0.02 0 15.57 0c0.98,-6.42 1.71,-12.75 2.14,-18.83 0.02,-0.24 0.02,-0.47 0.04,-0.7l-17.03 0c-0.14,6.32 -0.4,12.86 -0.74,19.53z"/>
  <path class="fil1" d="M562.75 28.14c-0.06,-1.94 -0.12,-3.83 -0.2,-5.68l-16.6 0c-0.08,1.86 -0.14,3.75 -0.2,5.7 -0.14,5.09 -0.19,10.5 -0.16,16.13l17.31 0c0.03,-5.64 -0.02,-11.05 -0.16,-16.13l0 -0.01z"/>
  <path class="fil1" d="M565.23 105.58l-0.22 2.33 -0.01 0c-0.45,4.66 -0.94,9.21 -1.46,13.63l7.66 0c0.54,-1.53 1.06,-3.08 1.58,-4.65 1.45,-4.41 2.79,-8.94 4.03,-13.53l-11.38 0 -0.21 2.22z"/>
 </g>
</svg>
