<?xml version="1.0" encoding="UTF-8"?>
<!DOCTYPE svg PUBLIC "-//W3C//DTD SVG 1.1//EN" "http://www.w3.org/Graphics/SVG/1.1/DTD/svg11.dtd">
<!-- Creator: CorelDRAW 2021 (64-Bit) -->
<svg xmlns="http://www.w3.org/2000/svg" xml:space="preserve" width="76.0688mm" height="18.696mm" version="1.1" style="shape-rendering:geometricPrecision; text-rendering:geometricPrecision; image-rendering:optimizeQuality; fill-rule:evenodd; clip-rule:evenodd"
viewBox="0 0 687.66 169.01"
 xmlns:xlink="http://www.w3.org/1999/xlink"
 xmlns:xodm="http://www.corel.com/coreldraw/odm/2003">
 <defs>
  <style type="text/css">
   <![CDATA[
    .fil0 {fill:#FEFEFE;fill-rule:nonzero}
    .fil1 {fill:#009EE0;fill-rule:nonzero}
    .fil2 {fill:#9CCEF3;fill-rule:nonzero}
   ]]>
  </style>
 </defs>
 <g id="Слой_x0020_1">
  <metadata id="CorelCorpID_0Corel-Layer"/>
  <path class="fil0" d="M12.33 86.48c0,9.13 4.56,16.02 11.75,16.02 6.8,0 11.56,-6.61 11.56,-16.23 0,-7.38 -3.31,-15.93 -11.47,-15.93 -8.46,0 -11.85,8.25 -11.85,16.14l0 0zm35.66 -0.49c0,17.39 -12.24,25.16 -24.29,25.16 -13.31,0 -23.7,-9.13 -23.7,-24.38 0,-15.55 10.2,-25.07 24.48,-25.07 14.09,0 23.51,9.91 23.51,24.29l-0 0z"/>
  <path class="fil1" d="M49.35 131.43l0 -5 4.51 -4.08c7.77,-6.96 11.52,-10.92 11.57,-15.05 0,-2.88 -1.68,-5.16 -5.76,-5.16 -3.04,0 -5.7,1.52 -7.55,2.88l-2.34 -5.87c2.61,-2.01 6.79,-3.65 11.52,-3.65 8.04,0 12.39,4.67 12.39,11.03 0,5.97 -4.25,10.7 -9.39,15.27l-3.26 2.72 0 0.11 13.37 0 0 6.8 -25.04 0 -0 0z"/>
  <path class="fil0" d="M126.75 108.64c-2.52,1.16 -7.49,2.43 -13.4,2.43 -14.77,0 -24.39,-9.52 -24.39,-24.2 0,-14.18 9.72,-25.17 26.33,-25.17 4.37,0 8.84,0.97 11.56,2.15l-2.13 9.03c-1.94,-0.97 -4.75,-1.84 -9.03,-1.84 -9.13,0 -14.58,6.71 -14.48,15.35 0,9.72 6.31,15.26 14.48,15.26 4.09,0 7.09,-0.88 9.43,-1.85l1.65 8.84 -0.01 0.01z"/>
  <path class="fil0" d="M144.04 86.48c0,9.13 4.56,16.02 11.77,16.02 6.8,0 11.56,-6.61 11.56,-16.23 0,-7.38 -3.31,-15.93 -11.46,-15.93 -8.46,0 -11.86,8.25 -11.86,16.14l-0.01 0zm35.66 -0.49c0,17.39 -12.24,25.16 -24.3,25.16 -13.31,0 -23.7,-9.13 -23.7,-24.38 0,-15.55 10.2,-25.07 24.49,-25.07 14.09,0 23.51,9.91 23.51,24.29z"/>
  <path class="fil0" d="M189.51 76.86c0,-5.44 -0.19,-10 -0.38,-14.09l10.4 0 0.59 7.09 0.28 0c2.13,-3.69 7.28,-8.16 15.15,-8.16 8.27,0 16.81,5.34 16.81,20.31l0 28.08 -11.95 0 0 -26.72c0,-6.8 -2.53,-11.95 -9.03,-11.95 -4.75,0 -8.06,3.4 -9.33,6.99 -0.38,0.97 -0.58,2.43 -0.58,3.79l0 27.88 -11.96 0 0 -33.23 -0.01 -0z"/>
  <path class="fil0" d="M244.6 99.02c2.62,1.65 7.78,3.5 12.05,3.5 5.25,0 7.58,-2.24 7.58,-5.34 0,-3.21 -1.93,-4.75 -7.77,-6.9 -9.24,-3.11 -13.02,-8.16 -13.02,-13.8 0,-8.36 6.9,-14.77 17.87,-14.77 5.25,0 9.81,1.26 12.62,2.82l-2.43 8.36c-1.94,-1.17 -5.83,-2.72 -10,-2.72 -4.28,0 -6.61,2.15 -6.61,5.06 0,3 2.24,4.37 8.25,6.61 8.65,3.01 12.53,7.38 12.64,14.39 0,8.65 -6.71,14.86 -19.24,14.86 -5.73,0 -10.87,-1.36 -14.37,-3.31l2.43 -8.74 0 -0.01z"/>
  <path class="fil0" d="M327.96 95.91c0,5.63 0.19,10.3 0.4,14.18l-10.4 0 -0.59 -7.09 -0.29 0c-2.04,3.3 -6.71,8.15 -15.26,8.15 -8.56,0 -16.42,-5.15 -16.42,-20.6l0 -27.79 11.96 0 0 25.75c0,7.86 2.52,12.92 8.84,12.92 4.86,0 7.96,-3.31 9.13,-6.41 0.47,-0.97 0.68,-2.34 0.68,-3.69l0 -28.56 11.95 0 0 33.13 0 0.01z"/>
  <polygon class="fil0" points="340.89,41.11 352.84,41.11 352.84,110.09 340.89,110.09 "/>
  <path class="fil0" d="M379.56 50.63l0 12.15 11.37 0 0 8.93 -11.37 0 0 20.89c0,5.83 1.55,8.74 6.12,8.74 2.13,0 3.3,-0.1 4.66,-0.49l0.19 9.04c-1.74,0.68 -4.95,1.26 -8.65,1.26 -4.46,0 -8.06,-1.46 -10.3,-3.88 -2.63,-2.72 -3.79,-7.09 -3.79,-13.31l0 -22.26 -6.71 0 0 -8.93 6.71 0 0 -8.84 11.75 -3.31 0.01 0z"/>
  <path class="fil0" d="M399.96 62.78l11.96 0 0 47.31 -11.96 0 0 -47.31zm12.73 -13.21c0,3.5 -2.62,6.41 -6.8,6.41 -3.99,0 -6.61,-2.91 -6.61,-6.41 0,-3.69 2.72,-6.5 6.71,-6.5 4.08,0 6.61,2.81 6.71,6.5l-0.01 0z"/>
  <path class="fil0" d="M424.84 76.86c0,-5.44 -0.19,-10 -0.4,-14.09l10.4 0 0.59 7.09 0.29 0c2.13,-3.69 7.28,-8.16 15.15,-8.16 8.27,0 16.81,5.34 16.81,20.31l0 28.08 -11.96 0 0 -26.72c0,-6.8 -2.53,-11.95 -9.03,-11.95 -4.76,0 -8.06,3.4 -9.33,6.99 -0.38,0.97 -0.58,2.43 -0.58,3.79l0 27.88 -11.96 0 0 -33.23 -0 -0z"/>
  <path class="fil0" d="M511.31 81.73c0,-1.16 -0.09,-2.24 -0.38,-3.21 -1.26,-4.37 -4.66,-7.68 -9.72,-7.68 -6.71,0 -11.66,5.83 -11.66,15.45 0,8.06 4.08,14.57 11.56,14.57 4.46,0 8.36,-2.91 9.72,-7.28 0.38,-1.16 0.47,-2.82 0.47,-4.18l0 -7.68 0.01 0.01zm11.96 21.47c0,9.91 -2.03,17.01 -6.99,21.48 -4.86,4.38 -11.75,5.74 -18.27,5.74 -6.03,0 -12.43,-1.36 -16.52,-3.79l2.62 -9.03c3,1.75 8.06,3.59 13.8,3.59 7.77,0 13.61,-4.08 13.61,-14.27l0 -4.09 -0.2 0c-2.72,4.18 -7.49,7 -13.8,7 -11.75,0 -20.11,-9.71 -20.11,-23.13 0,-15.55 10.11,-24.97 21.48,-24.97 7.28,0 11.46,3.5 13.7,7.38l0.19 0 0.49 -6.31 10.4 0c-0.2,3.21 -0.4,7.09 -0.4,13.6l0 26.82 0.01 -0.01z"/>
  <path class="fil2" d="M594.03 116.7l-0.03 0 -0.57 -2.18 -0.45 -1.74 -13.62 0c2.53,5.83 5.33,11.57 8.37,17.19l10.17 0c-1.39,-4.35 -2.68,-8.79 -3.87,-13.28l0 0.01z"/>
  <path class="fil2" d="M587.9 88.84l-0.03 0 -17.22 0c1.76,6.02 3.87,12.1 6.29,18.13l14.63 0c-1.42,-6.06 -2.64,-12.13 -3.67,-18.13l-0 0z"/>
  <path class="fil2" d="M617.27 152.31l-0.34 -2.51 -0.45 -3.31 0.01 0c-0.15,-1.14 -0.29,-2.28 -0.44,-3.44l-7.24 0c1.26,3.35 6.66,16.31 7.24,17.5l2.47 0c-0.42,-2.65 -0.82,-5.41 -1.23,-8.24l-0.01 0 -0.01 0z"/>
  <path class="fil2" d="M625.83 169.01c0.16,-0.87 2,-12.97 2.51,-16.7l-5.01 0c0.51,3.73 2.35,15.84 2.51,16.7z"/>
  <path class="fil2" d="M602.35 143.05l-0.69 -1.92 -1.41 -3.9 0.06 0c-0.17,-0.49 -0.34,-0.96 -0.51,-1.45l-8.81 0c3.08,5.31 6.36,10.42 9.77,15.27l4.73 0c-1.06,-2.61 -2.1,-5.28 -3.12,-8.02l-0.01 0 -0.01 0.01z"/>
  <path class="fil2" d="M585.94 20.79l-18.54 0c-1.39,4.75 -2.36,9.88 -2.9,15.28l19.79 0c0.02,-0.49 1.23,-12.68 1.65,-15.28z"/>
  <path class="fil2" d="M641.14 19.55l0.15 2.76 0.16 3.06 -0.01 0c0.05,1.14 0.09,2.28 0.14,3.44l18.98 0c-0.38,-3.61 -2.46,-16.31 -2.79,-17.5l-17.23 0c0.23,2.63 0.43,5.39 0.6,8.24l0.01 0z"/>
  <path class="fil2" d="M687.16 36.07c-0.53,-5.4 -1.51,-10.51 -2.9,-15.28l-18.54 0c0.43,2.59 1.63,14.79 1.65,15.28l19.79 0z"/>
  <path class="fil2" d="M584.33 58.22l-0.16 -3.07 0.02 0c-0.19,-4.55 -0.23,-8.99 -0.14,-13.28l-19.96 0c-0.23,5.48 -0.03,11.25 0.57,17.19l19.73 0 -0.05 -0.85 -0.01 0.01z"/>
  <path class="fil2" d="M633.36 0l-15.06 0c-0.26,1.75 -1.31,15.72 -1.54,19.55l18.13 0c-0.23,-3.84 -1.28,-17.81 -1.54,-19.55l0 0z"/>
  <path class="fil2" d="M610.24 25.36l-0.01 0 0.16 -3.06 0.15 -2.76 0.02 0c0.17,-2.86 0.37,-5.61 0.6,-8.24l-17.23 0c-0.33,1.2 -2.41,13.89 -2.79,17.5l18.98 0c0.05,-1.16 0.09,-2.32 0.14,-3.44l-0.01 0z"/>
  <path class="fil2" d="M586.96 83.03c-0.94,-6.17 -1.67,-12.24 -2.17,-18.15l-19.42 0c0.85,5.91 2.08,11.99 3.67,18.15l17.89 0 0.05 0 -0.01 0z"/>
  <path class="fil2" d="M658.23 114.53l-0.57 2.18 -0.02 0c-1.21,4.48 -2.5,8.92 -3.87,13.28l10.17 0c3.04,-5.61 5.84,-11.36 8.37,-17.19l-13.62 0 -0.45 1.74 -0.01 -0.01z"/>
  <path class="fil2" d="M664.7 83.03l0.03 0 17.89 0c1.59,-6.15 2.81,-12.24 3.66,-18.15l-19.43 0c-0.5,5.91 -1.23,11.98 -2.17,18.15l0.02 0z"/>
  <path class="fil2" d="M635.19 146.49l0.01 0 -0.45 3.31 -0.34 2.52 -0.01 0c-0.41,2.85 -0.81,5.6 -1.23,8.24l2.47 0c0.58,-1.2 5.98,-14.14 7.24,-17.5l-7.25 0c-0.15,1.15 -0.29,2.3 -0.44,3.44l0 -0.01z"/>
  <path class="fil2" d="M663.77 88.84c-1.04,6.02 -2.26,12.08 -3.67,18.13l14.63 0c2.42,-6.04 4.52,-12.12 6.3,-18.13l-17.22 0 -0.03 0 -0.01 0z"/>
  <path class="fil2" d="M651.35 137.24l0.06 0 -1.41 3.9 -0.69 1.92 -0.01 0c-1.02,2.74 -2.05,5.41 -3.12,8.02l4.73 0c3.42,-4.86 6.7,-9.96 9.78,-15.27l-8.82 0c-0.17,0.49 -0.34,0.96 -0.51,1.45l-0.01 -0.01z"/>
  <path class="fil2" d="M687.57 41.88l-19.95 0c0.1,4.29 0.06,8.73 -0.14,13.28l0.02 0 -0.17 3.07 -0.05 0.85 19.72 0c0.61,-5.95 0.79,-11.71 0.57,-17.19l-0 -0.01z"/>
  <path class="fil2" d="M617.33 88.84c0.47,8.25 1.05,16.54 1.75,24.71 0.07,0.84 0.15,1.66 0.21,2.48l13.06 0c0.07,-0.82 0.15,-1.65 0.21,-2.48 0.7,-8.17 1.28,-16.46 1.75,-24.71l-16.99 0 0 0z"/>
  <path class="fil2" d="M616.15 58.02c0.15,8.04 0.44,16.44 0.87,25.01l17.61 0c0.43,-8.58 0.72,-16.98 0.87,-25.01l0 -0.01c0.01,-0.73 0.02,-1.46 0.03,-2.19l-19.43 0c0.01,0.73 0.02,1.46 0.03,2.19l0 0.01 0.01 0z"/>
  <path class="fil1" d="M613.69 121.85l-0.25 -2.63 -0.24 -2.51 -12.85 0c1.4,5.17 2.91,10.29 4.55,15.28 0.58,1.76 1.17,3.51 1.78,5.25l8.65 0c-0.59,-4.98 -1.13,-10.12 -1.65,-15.39l-0.01 0 0.01 0z"/>
  <path class="fil1" d="M609.84 52.95l-0.03 -2.94 0.01 0c-0.03,-5.35 0.01,-10.48 0.11,-15.39l-19.31 0c-0.11,1.47 -0.19,2.96 -0.25,4.46l0 0.01c-0.2,5.13 -0.18,10.51 0.06,16.07l19.44 0 -0.02 -2.2 -0.01 -0.01z"/>
  <path class="fil1" d="M611.14 88.84l-0.02 0 -16.95 0c1.17,6.75 2.59,13.58 4.25,20.36 0.14,0.57 0.29,1.13 0.43,1.69l13.85 0c-0.62,-7.35 -1.14,-14.74 -1.56,-22.05l0 -0z"/>
  <path class="fil1" d="M610.81 83.03c-0.38,-7.53 -0.68,-14.93 -0.84,-22.05l-19.23 0c0.02,0.26 0.02,0.52 0.05,0.79l0 0.01c0.49,6.85 1.32,14 2.42,21.25l17.58 0 0.01 0 0.01 0z"/>
  <path class="fil1" d="M621.73 139.79c0.26,2.28 0.53,4.51 0.82,6.7l6.56 0c0.28,-2.18 0.55,-4.42 0.82,-6.7 0.69,-5.79 1.31,-11.81 1.9,-17.95l-12.01 0c0.6,6.19 1.22,12.21 1.91,17.95z"/>
  <path class="fil1" d="M640.53 88.84c-0.43,7.33 -0.95,14.7 -1.56,22.05l13.85 0c0.14,-0.57 0.29,-1.13 0.43,-1.69 1.66,-6.79 3.07,-13.62 4.25,-20.36l-16.95 0 -0.01 0 -0.01 0z"/>
  <path class="fil1" d="M661.28 39.09l0 -0.01c-0.07,-1.5 -0.15,-2.99 -0.24,-4.46l-19.32 0c0.1,4.9 0.15,10.04 0.11,15.39l0.01 0 -0.03 2.94 -0.02 2.2 19.43 0c0.24,-5.57 0.26,-10.95 0.05,-16.07l0.01 0.01z"/>
  <path class="fil1" d="M640.85 83.03l0.02 0 17.58 0c1.11,-7.25 1.93,-14.4 2.42,-21.26 0.02,-0.27 0.02,-0.53 0.05,-0.79l-19.23 0c-0.16,7.14 -0.45,14.52 -0.84,22.05z"/>
  <path class="fil1" d="M635.42 31.77c-0.07,-2.19 -0.14,-4.32 -0.23,-6.41l-18.74 0c-0.09,2.1 -0.16,4.23 -0.23,6.44 -0.16,5.75 -0.21,11.86 -0.18,18.21l19.55 0c0.03,-6.37 -0.02,-12.48 -0.18,-18.21l0 -0.01 0.01 -0.01z"/>
  <path class="fil1" d="M638.22 119.22l-0.25 2.63 -0.01 0c-0.51,5.26 -1.06,10.4 -1.65,15.39l8.65 0c0.61,-1.73 1.2,-3.48 1.78,-5.25 1.64,-4.98 3.15,-10.09 4.55,-15.28l-12.85 0 -0.24 2.51 0.01 0z"/>
 </g>
</svg>
