<svg width="296.427" height="314.6" viewBox="0 0 222.32 235.95" xmlns="http://www.w3.org/2000/svg" xmlns:xlink="http://www.w3.org/1999/xlink" overflow="hidden"><defs><clipPath id="clip1"><path d="M92 172 119 172 119 235.949 92 235.949Z"/></clipPath><clipPath id="clip2"><path d="M190 172 222.32 172 222.32 211 190 211Z"/></clipPath></defs><g id="surface1"><path d="M72.8711 34.8008C72.8711 33.5391 72.5742 32.7812 72.1016 32.3242 71.6172 31.8281 70.8359 31.5391 69.5781 31.5391 68.3203 31.5391 67.5625 31.8281 67.0625 32.3164 66.6211 32.7812 66.2773 33.5391 66.2773 34.8125L66.2773 47.6602C66.2891 50.1914 65.3789 52.4336 63.5664 54.1367 61.8086 55.9102 59.543 56.8008 56.9922 56.7852 54.4531 56.8008 52.207 55.9102 50.4336 54.1367 48.6484 52.4336 47.7109 50.1914 47.7148 47.6602L47.7148 34.8125C47.7109 33.5391 47.3828 32.7812 46.9336 32.3164 46.457 31.8281 45.6992 31.5391 44.4414 31.5391 43.168 31.5391 42.3672 31.8281 41.8867 32.3242 41.4258 32.7812 41.1562 33.5039 41.1133 34.6992L41.1133 47.6445C41.1133 52.0039 42.6406 55.6016 45.7617 58.6797 48.8984 61.7422 52.5742 63.2539 56.9922 63.2539 61.1836 63.2539 64.7109 61.8711 67.7617 59.0781L68.4492 58.4609 69.0664 59.1484C71.457 61.9258 74.3438 63.2461 77.918 63.2539 78.4219 63.2539 78.9453 63.2031 79.4297 63.1562 77.8359 62.2148 76.457 60.9531 75.3281 59.3945 73.7031 57.1211 72.8711 54.5391 72.8711 51.75L72.8711 34.8008" fill="#0069AA"/><path d="M138.242 74.9062C138.242 76.6797 139.688 78.1211 141.441 78.1211 143.23 78.1211 144.66 76.6797 144.66 74.9062 144.66 73.1328 143.23 71.6914 141.441 71.6914 139.688 71.6914 138.242 73.1328 138.242 74.9062" fill="#0069AA"/><path d="M82.7031 3.89453C84.3281 6.15234 85.1836 8.73438 85.1836 11.5781L85.1836 60.1211C85.1836 61.3594 85.4883 62.1016 85.9531 62.5625 86.418 63.0352 87.1953 63.3438 88.4375 63.3438 89.7188 63.3438 90.5352 63.0352 90.9844 62.5625 91.4648 62.1328 91.7461 61.3867 91.7461 60.1797L91.7461 11.5781C91.7461 8.30078 90.6484 5.65625 88.3555 3.39844 86.0508 1.12109 83.3516 0.03125 80.0742 0.00390625 79.5703 0.00390625 79.0781 0.0507813 78.5703 0.121094 80.1875 1.07031 81.543 2.33203 82.7031 3.89453" fill="#0069AA"/><path d="M146.535 74.9062C146.535 76.6797 148.031 78.1211 149.781 78.1211 151.559 78.1211 153.012 76.6797 153.031 74.9062 153.012 73.1328 151.559 71.6914 149.781 71.6914 148.031 71.6914 146.535 73.1328 146.535 74.9062" fill="#0069AA"/><path d="M177.148 31.9414C172.754 31.9414 169.152 33.4375 166.082 36.543 163.047 39.6602 161.559 43.3438 161.551 47.8242 161.551 50.6328 162.234 53.2734 163.641 55.7617L164.391 57.1016 155.543 57.1016C154.16 57.1133 152.988 56.6641 152.141 55.9258 151.273 55.1719 150.719 54.2109 150.273 53.1523 149.484 51.0625 149.355 48.6445 149.336 46.8555L149.336 34.625C149.305 33.4375 149.02 32.707 148.547 32.2852 148.055 31.7891 147.281 31.4922 146.016 31.4922 144.742 31.4922 143.949 31.7891 143.512 32.2852 143.035 32.7383 142.73 33.5039 142.73 34.7461L142.73 47.6172C142.75 50.1172 141.816 52.3594 140.012 54.0898 138.258 55.8555 135.977 56.7578 133.453 56.7266 130.891 56.7578 128.613 55.8555 126.844 54.0898 125.051 52.3594 124.137 50.1172 124.137 47.6172L124.137 34.7461C124.137 33.5039 123.832 32.7383 123.383 32.2852 122.922 31.7891 122.133 31.4922 120.887 31.4922 119.605 31.4922 118.812 31.7891 118.324 32.2852 117.871 32.7383 117.547 33.5039 117.547 34.7461L117.547 51.293 117.535 51.3516C117.52 51.4727 117.332 52.7422 116.195 54.0898 115.062 55.4609 112.992 56.7266 109.598 56.7656 109.426 56.7852 109.305 56.7852 109.172 56.7852 106.723 56.7656 104.043 55.8555 101.902 54.2695 100.336 53.168 99.1094 51.8125 98.1484 50.2031 98.1133 50.6953 98.0742 51.1758 98.0742 51.6367 98.0742 54.9414 99.1602 57.6758 101.426 59.957 103.672 62.2539 106.332 63.3633 109.598 63.3633L112.824 63.3633C116.238 63.2617 119.059 61.7812 121.375 59.1055L121.988 58.4258 122.648 59.0352C125.75 61.832 129.281 63.1875 133.453 63.1875 137.637 63.1875 141.188 61.832 144.203 59.0781L144.945 58.4258 145.508 59.1875C145.828 59.5703 146.133 59.9336 146.48 60.2852 148.695 62.5625 151.301 63.3438 154.605 63.3633L177.281 63.3633C181.699 63.3633 185.332 62.1641 188.379 59.0703 191.438 55.9609 192.926 52.2773 192.926 47.8242 192.926 43.3438 191.438 39.6602 188.379 36.543 185.301 33.4375 181.664 31.9414 177.281 31.9414ZM183.816 41.2109C185.57 42.9727 186.465 45.2461 186.465 47.8242 186.465 50.3672 185.57 52.6328 183.816 54.4141 182.09 56.1758 179.84 57.1016 177.324 57.1016L177.121 57.1016C174.602 57.1133 172.367 56.1836 170.656 54.4062 168.883 52.6133 167.973 50.3672 167.973 47.8242 167.973 45.2539 168.883 43.0156 170.656 41.2188 172.367 39.4297 174.602 38.5234 177.121 38.5312L177.297 38.5312C179.84 38.5234 182.102 39.4297 183.816 41.2109" fill="#0069AA"/><path d="M60.2344 22.6016C60.2109 20.8281 58.7734 19.375 56.9922 19.375 55.2148 19.375 53.7891 20.8281 53.7891 22.6016 53.7891 24.3789 55.2148 25.8008 56.9922 25.8438 58.7734 25.8008 60.2109 24.3789 60.2344 22.6016" fill="#0069AA"/><path d="M6.375 182.066C6.375 180.098 5.76172 178.254 4.61719 176.621 3.45703 174.961 1.89844 173.824 0 173.141 0.996094 172.758 2.04297 172.574 3.19141 172.574 6.12109 172.574 8.54688 173.691 10.4922 175.953 12.9883 173.691 15.8867 172.574 19.207 172.574 23.0781 172.574 26.2773 174.008 28.8672 176.879 28.957 176.758 29.1289 176.559 29.418 176.285 31.8789 173.824 34.9062 172.574 38.4844 172.574 42.043 172.574 45.0625 173.801 47.5664 176.277 50.1133 178.727 51.3242 181.707 51.3242 185.223L51.3242 207.383C51.3242 209.504 50.2734 210.578 48.1406 210.578 45.9883 210.578 44.9141 209.504 44.9141 207.383L44.9141 185.199C44.9141 183.438 44.2812 181.934 43.082 180.734 41.8164 179.512 40.2852 178.906 38.5156 178.906 36.6953 178.906 35.1836 179.512 33.9453 180.734 32.7227 181.934 32.1055 183.438 32.1055 185.199L32.1055 207.211 32.0977 207.211C32.1055 207.273 32.1055 207.32 32.1055 207.383 32.1055 207.953 31.918 208.496 31.6406 209.008 31.0234 210.062 30.0898 210.578 28.8867 210.578 26.7422 210.578 25.6758 209.504 25.6758 207.383L25.6758 185.199C25.6758 183.438 25.0391 181.934 23.8281 180.734 22.5547 179.512 21.043 178.906 19.2383 178.906 17.4531 178.906 15.9297 179.512 14.6914 180.734 13.4453 181.934 12.7969 183.438 12.7969 185.199L12.7969 207.383C12.7969 209.504 11.7227 210.578 9.58203 210.578 7.45312 210.578 6.375 209.504 6.375 207.383L6.375 182.066" fill="#0069AA"/><path d="M66.0664 197.906 66.0664 201.039C66.0664 203.078 66.6328 204.918 67.8203 206.547 69 208.195 70.543 209.352 72.4961 209.988 71.4102 210.387 70.3242 210.578 69.2891 210.578 66.5938 210.578 64.3203 209.648 62.4414 207.797 60.582 205.945 59.6602 203.691 59.6602 201.039L59.6602 185.223C59.6602 181.707 60.8828 178.699 63.4023 176.266 65.9102 173.801 68.9023 172.574 72.4961 172.574 76.0508 172.574 79.082 173.801 81.5859 176.277 84.0938 178.727 85.375 181.707 85.375 185.223L85.375 191.551C85.375 193.34 84.75 194.836 83.4805 196.043 82.2422 197.27 80.7109 197.906 78.9336 197.906ZM78.9336 185.199C78.9336 183.438 78.3047 181.934 77.0664 180.734 75.8125 179.512 74.293 178.906 72.4961 178.906 70.6758 178.906 69.1875 179.512 67.9102 180.734 66.6797 181.934 66.0664 183.438 66.0664 185.199L66.0664 191.746C66.0664 193.758 67.0859 194.785 69.1445 194.785L75.8672 194.785C77.8906 194.785 78.9336 193.758 78.9336 191.746L78.9336 185.199" fill="#0069AA"/><g clip-path="url(#clip1)"><path d="M92.8477 175.73C92.8477 173.637 93.9141 172.574 96.0469 172.574 98.1836 172.574 99.2266 173.637 99.2266 175.742L99.2266 197.906C99.2266 199.691 99.8555 201.207 101.082 202.406 102.328 203.625 103.883 204.227 105.676 204.227 107.453 204.227 108.988 203.625 110.254 202.406 111.496 201.184 112.113 199.688 112.113 197.906L112.113 175.742C112.113 173.637 113.164 172.574 115.312 172.574 117.453 172.574 118.527 173.637 118.527 175.73 118.527 175.812 118.527 175.867 118.516 175.914L118.527 175.914 118.527 226.43C118.527 229.062 117.586 231.305 115.707 233.172 113.832 235.012 111.543 235.949 108.879 235.949 107.828 235.949 106.754 235.766 105.676 235.391 107.578 234.68 109.133 233.539 110.332 231.891 111.504 230.277 112.113 228.449 112.113 226.43L112.113 208.84C110.133 209.98 107.984 210.578 105.676 210.578 102.105 210.578 99.0586 209.324 96.5742 206.867 94.0898 204.414 92.8477 201.41 92.8477 197.906L92.8477 175.73" fill="#0069AA"/></g><path d="M152.609 197.906C152.609 201.41 151.375 204.414 148.863 206.867 146.379 209.324 143.336 210.578 139.758 210.578 136.199 210.578 133.16 209.324 130.652 206.867 128.172 204.414 126.93 201.41 126.93 197.906L126.93 185.223C126.93 181.707 128.172 178.699 130.652 176.266 133.16 173.801 136.199 172.574 139.758 172.574 142.066 172.574 144.184 173.141 146.188 174.27L146.188 156.754C146.188 154.742 145.582 152.93 144.398 151.277 143.273 149.66 141.668 148.496 139.758 147.797 140.785 147.457 141.836 147.254 142.953 147.254 145.629 147.254 147.891 148.199 149.77 150.043 151.68 151.871 152.609 154.113 152.609 156.754ZM139.758 178.906C137.961 178.906 136.453 179.512 135.203 180.734 133.953 181.945 133.344 183.438 133.344 185.223L133.344 197.906C133.344 199.691 133.953 201.207 135.199 202.406 136.414 203.625 137.934 204.227 139.758 204.227 141.566 204.227 143.102 203.625 144.312 202.406 145.574 201.184 146.188 199.688 146.188 197.906L146.188 185.223C146.188 183.438 145.574 181.945 144.312 180.734 143.102 179.512 141.566 178.906 139.758 178.906" fill="#0069AA"/><path d="M186.547 201.039C186.547 203.09 187.113 204.918 188.309 206.566 189.453 208.195 191 209.352 192.926 209.988 191.84 210.387 190.758 210.578 189.734 210.578 186.742 210.578 184.309 209.441 182.395 207.168 179.895 209.441 177.008 210.578 173.695 210.578 170.102 210.578 167.082 209.324 164.602 206.867 162.086 204.414 160.836 201.41 160.836 197.906L160.836 185.223C160.836 181.707 162.086 178.699 164.602 176.266 167.082 173.801 170.102 172.574 173.695 172.574 177.262 172.574 180.293 173.801 182.789 176.277 185.293 178.727 186.547 181.707 186.547 185.223ZM173.695 178.906C171.91 178.906 170.371 179.512 169.145 180.734 167.867 181.945 167.25 183.438 167.25 185.223L167.25 197.906C167.25 199.691 167.867 201.207 169.145 202.406 170.352 203.625 171.887 204.227 173.695 204.227 175.484 204.227 177.023 203.625 178.258 202.406 179.5 201.184 180.113 199.688 180.113 197.906L180.113 185.223C180.113 183.438 179.5 181.945 178.258 180.734 177.023 179.512 175.484 178.906 173.695 178.906" fill="#0069AA"/><g clip-path="url(#clip2)"><path d="M196.637 182.066C196.637 180.098 196.043 178.254 194.852 176.621 193.699 174.961 192.148 173.824 190.277 173.141 191.27 172.758 192.316 172.574 193.457 172.574 196.375 172.574 198.828 173.691 200.762 175.953 203.242 173.691 206.137 172.574 209.473 172.574 213.027 172.574 216.047 173.801 218.586 176.277 221.055 178.727 222.324 181.707 222.324 185.223L222.324 207.227 222.285 207.227C222.324 207.273 222.324 207.32 222.324 207.383 222.324 209.504 221.234 210.578 219.082 210.578 216.957 210.578 215.898 209.504 215.898 207.383L215.898 185.199C215.898 183.438 215.277 181.934 214.023 180.734 212.781 179.512 211.281 178.906 209.473 178.906 207.676 178.906 206.156 179.512 204.926 180.734 203.676 181.934 203.039 183.438 203.039 185.199L203.039 207.383C203.039 209.504 201.965 210.578 199.84 210.578 197.695 210.578 196.637 209.504 196.637 207.383L196.637 182.066" fill="#0069AA"/></g></g></svg>